<?xml version="1.0" encoding="UTF-8"?><svg id="Layer_1" xmlns="http://www.w3.org/2000/svg" xmlns:xlink="http://www.w3.org/1999/xlink" viewBox="0 0 512 503.16"><defs><style>.cls-1{fill:url(#linear-gradient);}.cls-2{fill:url(#linear-gradient-8);}.cls-3{fill:url(#linear-gradient-9);}.cls-4{fill:url(#linear-gradient-3);}.cls-5{fill:url(#linear-gradient-4);}.cls-6{fill:url(#linear-gradient-2);}.cls-7{fill:url(#linear-gradient-6);}.cls-8{fill:url(#linear-gradient-7);}.cls-9{fill:url(#linear-gradient-5);}</style><linearGradient id="linear-gradient" x1="249.1" y1="22.79" x2="249.1" y2="225.39" gradientTransform="matrix(1, 0, 0, 1, 0, 0)" gradientUnits="userSpaceOnUse"><stop offset="0" stop-color="#873aff"/><stop offset="1" stop-color="#ff3a55"/></linearGradient><linearGradient id="linear-gradient-2" x1="238.44" y1="22.79" x2="238.44" y2="225.39" xlink:href="#linear-gradient"/><linearGradient id="linear-gradient-3" x1="259.82" y1="22.79" x2="259.82" y2="225.39" xlink:href="#linear-gradient"/><linearGradient id="linear-gradient-4" x1="265.35" y1="276.91" x2="265.35" y2="441.96" gradientTransform="matrix(1, 0, 0, 1, 0, 0)" gradientUnits="userSpaceOnUse"><stop offset="0" stop-color="#ff3a55"/><stop offset="1" stop-color="#873aff"/></linearGradient><linearGradient id="linear-gradient-5" x1="227.59" y1="21.57" x2="227.59" y2="209.29" xlink:href="#linear-gradient"/><linearGradient id="linear-gradient-6" x1="281.98" y1="281.3" x2="281.98" y2="443.09" xlink:href="#linear-gradient-4"/><linearGradient id="linear-gradient-7" x1="292.52" y1="295.47" x2="292.52" y2="446.56" xlink:href="#linear-gradient-4"/><linearGradient id="linear-gradient-8" x1="127.66" y1="58.22" x2="127.66" y2="243.34" xlink:href="#linear-gradient"/><linearGradient id="linear-gradient-9" x1="384.24" y1="449.4" x2="384.24" y2="276.35" xlink:href="#linear-gradient"/></defs><path class="cls-1" d="M295.33,250.34h4.8c0-118.05-40.16-217.84-94.82-248.61-2.42,.49-4.84,.99-7.24,1.55,55.65,26.02,97.26,126.9,97.26,247.06Z"/><path class="cls-6" d="M282.53,250.34h4.8c0-115.54-38.47-213.59-91.36-246.55-2.15,.52-4.29,1.06-6.42,1.63,53.49,29.08,92.98,127.86,92.98,244.92Z"/><path class="cls-4" d="M214.91,0c-2.75,.44-5.47,.93-8.19,1.46,57.72,22.83,101.41,125.75,101.41,248.88h4.8c0-120.34-41.73-221.73-98.02-250.34Z"/><path class="cls-5" d="M223.34,252.71h-4.8c.55,119.98,42.57,220.7,98.98,248.45-60.08-18.1-106.4-122.44-106.98-248.45h-4.8c.56,123.1,44.78,225.91,103.4,250.45,5.33-1.13,10.6-2.42,15.81-3.87-57.45-22.52-101.05-124.35-101.61-246.58Z"/><path class="cls-9" d="M274.21,232.41c-3.65-105.04-39.13-193.02-87.41-226.25-1.96,.55-3.9,1.12-5.84,1.71,48.02,29.8,83.87,116.28,88.3,220.6,1.81,1.11,3.47,2.43,4.95,3.94Z"/><path class="cls-7" d="M236.41,266.87c-2.27-2.68-4-5.84-5.02-9.3,1.6,114.89,41.23,211.25,94.79,241.37,2.14-.61,4.27-1.25,6.39-1.92-52.67-25.38-92.57-117.94-96.16-230.15Z"/><path class="cls-8" d="M249.54,275.13c-1.7-.44-3.34-1.05-4.89-1.82,4.68,104.8,41.07,191.82,89.98,223.05,1.93-.62,3.86-1.27,5.77-1.94-48.92-27.93-85.8-114.34-90.86-219.29Z"/><path class="cls-2" d="M230.35,250.34c0-13.93,11.12-25.25,24.97-25.58-4.89-98.58-37.74-180.69-82.47-214.21C72.29,45.07,0,140.44,0,252.71H230.46c-.07-.78-.11-1.57-.11-2.37Z"/><path class="cls-3" d="M511.97,250.34h-230.42c0,13.96-11.18,25.31-25.07,25.59,4.56,101.3,38.62,185.55,84.87,218.2,99.42-35.15,170.66-129.94,170.66-241.4,0-.8-.02-1.59-.03-2.39Z"/></svg>